<mxfile host="65bd71144e">
    <diagram id="vfKbDm2JCOHNPTJ-8Zt4" name="第 1 页">
        <mxGraphModel dx="755" dy="721" grid="1" gridSize="10" guides="1" tooltips="1" connect="1" arrows="1" fold="1" page="1" pageScale="1" pageWidth="827" pageHeight="1169" math="0" shadow="0">
            <root>
                <mxCell id="0"/>
                <mxCell id="19" value="a" parent="0"/>
                <mxCell id="21" style="edgeStyle=none;html=1;fontFamily=Times New Roman;fontSize=19;endArrow=none;endFill=0;" edge="1" parent="19" source="23" target="26">
                    <mxGeometry relative="1" as="geometry"/>
                </mxCell>
                <mxCell id="22" style="edgeStyle=none;html=1;fontFamily=Times New Roman;fontSize=19;endArrow=none;endFill=0;" edge="1" parent="19" source="23" target="29">
                    <mxGeometry relative="1" as="geometry"/>
                </mxCell>
                <mxCell id="23" value="a" style="ellipse;whiteSpace=wrap;html=1;fontFamily=Times New Roman;fontSize=19;" vertex="1" parent="19">
                    <mxGeometry x="300" y="140" width="40" height="40" as="geometry"/>
                </mxCell>
                <mxCell id="24" style="edgeStyle=none;html=1;fontFamily=Times New Roman;fontSize=19;endArrow=none;endFill=0;" edge="1" parent="19" source="26" target="30">
                    <mxGeometry relative="1" as="geometry"/>
                </mxCell>
                <mxCell id="25" style="edgeStyle=none;html=1;fontFamily=Times New Roman;fontSize=19;endArrow=none;endFill=0;" edge="1" parent="19" source="26" target="31">
                    <mxGeometry relative="1" as="geometry"/>
                </mxCell>
                <mxCell id="26" value="b" style="ellipse;whiteSpace=wrap;html=1;fontFamily=Times New Roman;fontSize=19;" vertex="1" parent="19">
                    <mxGeometry x="240" y="190" width="40" height="40" as="geometry"/>
                </mxCell>
                <mxCell id="27" style="edgeStyle=none;html=1;fontFamily=Times New Roman;fontSize=19;endArrow=none;endFill=0;" edge="1" parent="19" source="29" target="32">
                    <mxGeometry relative="1" as="geometry"/>
                </mxCell>
                <mxCell id="28" style="edgeStyle=none;html=1;fontFamily=Times New Roman;fontSize=19;endArrow=none;endFill=0;" edge="1" parent="19" source="29" target="33">
                    <mxGeometry relative="1" as="geometry"/>
                </mxCell>
                <mxCell id="29" value="d" style="ellipse;whiteSpace=wrap;html=1;fontFamily=Times New Roman;fontSize=19;" vertex="1" parent="19">
                    <mxGeometry x="360" y="190" width="40" height="40" as="geometry"/>
                </mxCell>
                <mxCell id="30" value="c" style="ellipse;whiteSpace=wrap;html=1;fontFamily=Times New Roman;fontSize=19;" vertex="1" parent="19">
                    <mxGeometry x="210" y="240" width="40" height="40" as="geometry"/>
                </mxCell>
                <mxCell id="31" value="f" style="ellipse;whiteSpace=wrap;html=1;fontFamily=Times New Roman;fontSize=19;" vertex="1" parent="19">
                    <mxGeometry x="270" y="240" width="40" height="40" as="geometry"/>
                </mxCell>
                <mxCell id="32" value="e" style="ellipse;whiteSpace=wrap;html=1;fontFamily=Times New Roman;fontSize=19;" vertex="1" parent="19">
                    <mxGeometry x="330" y="240" width="40" height="40" as="geometry"/>
                </mxCell>
                <mxCell id="33" value="g" style="ellipse;whiteSpace=wrap;html=1;fontFamily=Times New Roman;fontSize=19;" vertex="1" parent="19">
                    <mxGeometry x="390" y="240" width="40" height="40" as="geometry"/>
                </mxCell>
                <mxCell id="46" value="(a)" style="text;html=1;align=center;verticalAlign=middle;resizable=0;points=[];autosize=1;strokeColor=none;fillColor=none;fontSize=19;fontFamily=Times New Roman;" vertex="1" parent="19">
                    <mxGeometry x="300" y="280" width="40" height="40" as="geometry"/>
                </mxCell>
                <mxCell id="20" value="b" parent="0"/>
                <mxCell id="34" style="edgeStyle=none;html=1;fontFamily=Times New Roman;fontSize=19;endArrow=none;endFill=0;" edge="1" parent="20" source="36" target="39">
                    <mxGeometry relative="1" as="geometry"/>
                </mxCell>
                <mxCell id="35" style="edgeStyle=none;html=1;fontFamily=Times New Roman;fontSize=19;endArrow=none;endFill=0;" edge="1" parent="20" source="36" target="41">
                    <mxGeometry relative="1" as="geometry"/>
                </mxCell>
                <mxCell id="36" value="a" style="ellipse;whiteSpace=wrap;html=1;fontFamily=Times New Roman;fontSize=19;" vertex="1" parent="20">
                    <mxGeometry x="540" y="140" width="40" height="40" as="geometry"/>
                </mxCell>
                <mxCell id="37" style="edgeStyle=none;html=1;fontFamily=Times New Roman;fontSize=19;endArrow=none;endFill=0;" edge="1" parent="20" source="39" target="42">
                    <mxGeometry relative="1" as="geometry"/>
                </mxCell>
                <mxCell id="38" style="edgeStyle=none;html=1;fontFamily=Times New Roman;fontSize=19;endArrow=none;endFill=0;" edge="1" parent="20" source="39" target="43">
                    <mxGeometry relative="1" as="geometry"/>
                </mxCell>
                <mxCell id="39" value="b" style="ellipse;whiteSpace=wrap;html=1;fontFamily=Times New Roman;fontSize=19;" vertex="1" parent="20">
                    <mxGeometry x="480" y="190" width="40" height="40" as="geometry"/>
                </mxCell>
                <mxCell id="40" style="edgeStyle=none;html=1;fontFamily=Times New Roman;fontSize=19;endArrow=none;endFill=0;" edge="1" parent="20" source="41" target="44">
                    <mxGeometry relative="1" as="geometry"/>
                </mxCell>
                <mxCell id="41" value="d" style="ellipse;whiteSpace=wrap;html=1;fontFamily=Times New Roman;fontSize=19;" vertex="1" parent="20">
                    <mxGeometry x="600" y="190" width="40" height="40" as="geometry"/>
                </mxCell>
                <mxCell id="42" value="c" style="ellipse;whiteSpace=wrap;html=1;fontFamily=Times New Roman;fontSize=19;" vertex="1" parent="20">
                    <mxGeometry x="450" y="240" width="40" height="40" as="geometry"/>
                </mxCell>
                <mxCell id="43" value="f" style="ellipse;whiteSpace=wrap;html=1;fontFamily=Times New Roman;fontSize=19;" vertex="1" parent="20">
                    <mxGeometry x="510" y="240" width="40" height="40" as="geometry"/>
                </mxCell>
                <mxCell id="44" value="e" style="ellipse;whiteSpace=wrap;html=1;fontFamily=Times New Roman;fontSize=19;" vertex="1" parent="20">
                    <mxGeometry x="570" y="240" width="40" height="40" as="geometry"/>
                </mxCell>
                <mxCell id="47" value="(b)" style="text;html=1;align=center;verticalAlign=middle;resizable=0;points=[];autosize=1;strokeColor=none;fillColor=none;fontSize=19;fontFamily=Times New Roman;" vertex="1" parent="20">
                    <mxGeometry x="535" y="280" width="50" height="40" as="geometry"/>
                </mxCell>
            </root>
        </mxGraphModel>
    </diagram>
</mxfile>